<svg width="32" height="32" viewBox="0 0 32 32" fill="none" xmlns="http://www.w3.org/2000/svg">
<path d="M29.3067 20.8667C28.7468 20.1767 28.0394 19.6208 27.2364 19.2401C26.4334 18.8594 25.5553 18.6635 24.6667 18.6667C23.2533 18.6667 21.9467 19.1601 20.92 19.9867C20.2139 20.5447 19.6441 21.2561 19.2537 22.0669C18.8633 22.8778 18.6626 23.7668 18.6667 24.6667C18.6667 26.5467 19.52 28.2134 20.8667 29.3067C21.8933 30.1601 23.2267 30.6667 24.6667 30.6667C26.1867 30.6667 27.56 30.0934 28.6267 29.1734C29.2662 28.6093 29.7787 27.9159 30.1304 27.139C30.482 26.3622 30.6648 25.5195 30.6667 24.6667C30.6667 23.2267 30.16 21.8934 29.3067 20.8667ZM26.04 25.0401C26.04 25.3867 25.8533 25.7201 25.56 25.8934L23.68 27.0134C23.52 27.1067 23.3467 27.1601 23.16 27.1601C22.8267 27.1601 22.4933 26.9867 22.3067 26.6801C22.0267 26.2001 22.1733 25.5867 22.6533 25.3067L24.04 24.4801V22.8001C24.04 22.2534 24.4933 21.8001 25.04 21.8001C25.5867 21.8001 26.04 22.2534 26.04 22.8001V25.0401ZM19.64 7.81342V3.33341C19.64 2.96008 19.3467 2.66675 18.9733 2.66675H13.0267C12.6533 2.66675 12.36 2.96008 12.36 3.33341V7.81342C12.36 8.18675 12.6533 8.48008 13.0267 8.48008H18.9733C19.3467 8.48008 19.64 8.18675 19.64 7.81342ZM9.66534 2.69341C6.252 2.90675 3.91867 4.66675 3.052 7.60008C2.91867 8.04008 3.23867 8.48008 3.692 8.48008H9.692C10.0653 8.48008 10.3587 8.18675 10.3587 7.81342V3.36008C10.3587 3.27024 10.3407 3.18132 10.3055 3.09865C10.2703 3.01597 10.2188 2.94126 10.1541 2.87899C10.0893 2.81673 10.0126 2.76819 9.92866 2.7363C9.84467 2.70441 9.7551 2.68982 9.66534 2.69341ZM22.3333 2.67875C25.7467 2.89208 28.08 4.65208 28.9467 7.58541C29.08 8.02541 28.76 8.46542 28.3067 8.46542H22.3067C21.9333 8.46542 21.64 8.17208 21.64 7.79875V3.34541C21.6399 3.25558 21.658 3.16665 21.6932 3.08398C21.7283 3.00131 21.7798 2.92659 21.8446 2.86433C21.9094 2.80206 21.986 2.75352 22.07 2.72163C22.154 2.68974 22.2436 2.67515 22.3333 2.67875Z" fill="#FEDC5A"/>
<path d="M29.3333 11.1466V16.9866C29.3333 17.48 28.8133 17.8 28.3733 17.5733C26.8466 16.7776 25.1043 16.4945 23.4042 16.7658C21.7041 17.0372 20.1365 17.8486 18.9333 19.08C17.4708 20.5706 16.6562 22.5784 16.6667 24.6666C16.6667 25.7466 17.0933 27.1333 17.6267 28.2933C17.84 28.76 17.52 29.3333 17 29.3333H10.4133C6.13332 29.3333 2.66666 25.8666 2.66666 21.5866V11.1466C2.66666 10.7733 2.95999 10.48 3.33332 10.48H28.6667C29.04 10.48 29.3333 10.7733 29.3333 11.1466Z" fill="#FEDC5A"/>
</svg>
