<svg width="28" height="28" viewBox="0 0 28 28" fill="none" xmlns="http://www.w3.org/2000/svg">
<path d="M19.3333 0.625244H8.66666C3.33332 0.625244 0.666656 3.29191 0.666656 8.62524V15.2919C0.666656 21.9586 3.33332 23.2919 8.66666 23.2919H9.33332C9.70666 23.2919 10.1867 23.5319 10.4 23.8252L12.4 26.4919C13.28 27.6652 14.72 27.6652 15.6 26.4919L17.6 23.8252C17.8533 23.4919 18.2533 23.2919 18.6667 23.2919H19.3333C24.6667 23.2919 27.3333 20.6252 27.3333 15.2919V8.62524C27.3333 3.29191 24.6667 0.625244 19.3333 0.625244ZM9.37332 14.2252C9.75999 14.6119 9.75999 15.2519 9.37332 15.6386C9.17332 15.8386 8.91999 15.9319 8.66666 15.9319C8.41332 15.9319 8.15999 15.8386 7.95999 15.6386L5.29332 12.9719C5.10735 12.7837 5.00305 12.5298 5.00305 12.2652C5.00305 12.0007 5.10735 11.7468 5.29332 11.5586L7.95999 8.89191C8.34666 8.50524 8.98666 8.50524 9.37332 8.89191C9.75999 9.27858 9.75999 9.91858 9.37332 10.3052L7.41332 12.2652L9.37332 14.2252ZM16.2533 9.54525L13.5867 15.7719C13.4267 16.1452 13.0533 16.3719 12.6667 16.3719C12.4997 16.3742 12.3348 16.3344 12.1873 16.2562C12.0398 16.1779 11.9145 16.0637 11.8228 15.9242C11.7311 15.7846 11.676 15.6242 11.6627 15.4578C11.6494 15.2914 11.6783 15.1242 11.7467 14.9719L14.4133 8.74524C14.6267 8.23858 15.2133 7.99858 15.7333 8.22524C16.24 8.45191 16.4667 9.03858 16.2533 9.54525ZM22.7067 12.9719L20.04 15.6386C19.84 15.8386 19.5867 15.9319 19.3333 15.9319C19.08 15.9319 18.8267 15.8386 18.6267 15.6386C18.4407 15.4504 18.3364 15.1965 18.3364 14.9319C18.3364 14.6673 18.4407 14.4134 18.6267 14.2252L20.5867 12.2652L18.6267 10.3052C18.4407 10.1171 18.3364 9.86315 18.3364 9.59858C18.3364 9.334 18.4407 9.08009 18.6267 8.89191C19.0133 8.50524 19.6533 8.50524 20.04 8.89191L22.7067 11.5586C23.0933 11.9452 23.0933 12.5852 22.7067 12.9719Z" fill="#413E65"/>
</svg>
