<svg width="32" height="32" viewBox="0 0 32 32" fill="none" xmlns="http://www.w3.org/2000/svg">
<path d="M22.6667 5.33325H9.33333C5.33333 5.33325 2.66667 7.33325 2.66667 11.9999V16.7466C2.66667 17.2399 3.17333 17.5466 3.61333 17.3466C4.92 16.7466 6.42667 16.5199 8.01333 16.7999C11.52 17.4266 14.0933 20.6799 14 24.2399C13.9867 24.7999 13.9067 25.3466 13.76 25.8799C13.6533 26.2933 13.9867 26.6799 14.4133 26.6799H22.6667C26.6667 26.6799 29.3333 24.6799 29.3333 20.0133V11.9999C29.3333 7.33325 26.6667 5.33325 22.6667 5.33325ZM16 19.3333C15.1159 19.3333 14.2681 18.9821 13.643 18.3569C13.0179 17.7318 12.6667 16.884 12.6667 15.9999C12.6667 15.1159 13.0179 14.268 13.643 13.6429C14.2681 13.0178 15.1159 12.6666 16 12.6666C16.8841 12.6666 17.7319 13.0178 18.357 13.6429C18.9821 14.268 19.3333 15.1159 19.3333 15.9999C19.3333 16.884 18.9821 17.7318 18.357 18.3569C17.7319 18.9821 16.8841 19.3333 16 19.3333ZM25.6667 18.6666C25.6667 19.2133 25.2133 19.6666 24.6667 19.6666C24.12 19.6666 23.6667 19.2133 23.6667 18.6666V13.3333C23.6667 12.7866 24.12 12.3333 24.6667 12.3333C25.2133 12.3333 25.6667 12.7866 25.6667 13.3333V18.6666Z" fill="#5454D4"/>
<path d="M6.66667 18.6667C3.72 18.6667 1.33333 21.0534 1.33333 24.0001C1.33333 25.0001 1.61333 25.9467 2.10667 26.7467C2.57671 27.5367 3.24438 28.1907 4.04395 28.6443C4.84352 29.0978 5.74742 29.3353 6.66667 29.3334C8.61333 29.3334 10.3067 28.2934 11.2267 26.7467C11.72 25.9467 12 25.0001 12 24.0001C12 21.0534 9.61333 18.6667 6.66667 18.6667ZM9.29333 23.5601L6.45333 26.1867C6.26667 26.3601 6.01333 26.4534 5.77333 26.4534C5.52 26.4534 5.26667 26.3601 5.06667 26.1601L3.74667 24.8401C3.56069 24.6519 3.4564 24.398 3.4564 24.1334C3.4564 23.8688 3.56069 23.6149 3.74667 23.4267C4.13333 23.0401 4.77333 23.0401 5.16 23.4267L5.8 24.0667L7.93333 22.0934C8.33333 21.7201 8.97333 21.7467 9.34667 22.1467C9.72 22.5467 9.69333 23.1867 9.29333 23.5601Z" fill="#5454D4"/>
</svg>
