<svg width="27" height="27" viewBox="0 0 27 27" fill="none" xmlns="http://www.w3.org/2000/svg">
<path d="M26.359 11.9423L24.5457 9.83564C24.199 9.43564 23.919 8.68898 23.919 8.15564V5.88898C23.919 4.47564 22.759 3.31564 21.3457 3.31564H19.079C18.559 3.31564 17.799 3.03564 17.399 2.68898L15.2924 0.875645C14.3724 0.0889779 12.8657 0.0889779 11.9324 0.875645L9.83905 2.70231C9.43905 3.03564 8.67905 3.31564 8.15905 3.31564H5.85238C4.43905 3.31564 3.27905 4.47564 3.27905 5.88898V8.16898C3.27905 8.68898 2.99905 9.43564 2.66571 9.83564L0.865715 11.9556C0.0923818 12.8756 0.0923818 14.369 0.865715 15.289L2.66571 17.409C2.99905 17.809 3.27905 18.5556 3.27905 19.0756V21.3556C3.27905 22.769 4.43905 23.929 5.85238 23.929H8.15905C8.67905 23.929 9.43905 24.209 9.83905 24.5556L11.9457 26.369C12.8657 27.1556 14.3724 27.1556 15.3057 26.369L17.4124 24.5556C17.8124 24.209 18.559 23.929 19.0924 23.929H21.359C22.7724 23.929 23.9324 22.769 23.9324 21.3556V19.089C23.9324 18.569 24.2124 17.809 24.559 17.409L26.3724 15.3023C27.1457 14.3823 27.1457 12.8623 26.359 11.9423ZM19.159 11.1023L12.719 17.5423C12.5315 17.7296 12.2774 17.8348 12.0124 17.8348C11.7474 17.8348 11.4932 17.7296 11.3057 17.5423L8.07905 14.3156C7.89307 14.1275 7.78878 13.8736 7.78878 13.609C7.78878 13.3444 7.89307 13.0905 8.07905 12.9023C8.46571 12.5156 9.10571 12.5156 9.49238 12.9023L12.0124 15.4223L17.7457 9.68898C18.1324 9.30231 18.7724 9.30231 19.159 9.68898C19.5457 10.0756 19.5457 10.7156 19.159 11.1023Z" fill="#F04037"/>
</svg>
